/* XPM */
static char *_a4de8deec5b4e4b804fdce38e40318auaG9PJwd05R2aCTS[] = {
/* columns rows colors chars-per-pixel */
"32 32 5 1 ",
"  c #1A151F",
". c #474C80",
"X c #5590B4",
"o c #81D7CE",
"O c #F6F5DE",
/* pixels */
"                                ",
".                      .        ",
"X.                     X       .",
".                    .XoX.      ",
"      .                X        ",
"      X                .        ",
"     .o.                        ",
"   .XoOoX.                      ",
"     .o.                    .   ",
"      X                    .X.  ",
"      .                     .   ",
"                                ",
"                                ",
"   .                      .     ",
"   X            .         X     ",
" .XoX.         .X.       .o.    ",
"   X            .      .XoOoX.  ",
"   .                     .o.    ",
"                          X     ",
"                          .     ",
"                                ",
"                                ",
"                                ",
"                                ",
"                                ",
"      .       .                 ",
"     .X.      X                 ",
"      .     .XoX.               ",
"              X                 ",
"              .                 ",
"                                ",
"                                "
};
