/* XPM */
static char *cf537bd64c374423c0b3cb59e78445722yCzjKaXsPxtD5kF[] = {
/* columns rows colors chars-per-pixel */
"32 32 3 1 ",
"  c #393B42",
". c #6D767B",
"X c #B3BDB6",
/* pixels */
".....................   ........",
"...................  ...X.... ..",
".......X............ ...XX....X.",
"...X..XX.XX......... ...X.......",
"....X....... . .... .XXX.X......",
"...X..    ..  ........X.........",
"..... . . X.. ..................",
"..X. .... .X....................",
".XX.  .....X. ..................",
".... .....XX. ..................",
"..X. .X....X....................",
"..XX.X..X.X.  ..................",
"...X..XXXX.. ...... ............",
"..X.. ..... . ......X........  .",
"...... .  .................. ..X",
"........ ................... ..X",
".............................XX.",
"................................",
". ........................ .....",
"..X...............  .... . .....",
"........ .. ..... ..X. .    .X..",
".........   ..... ..X.. .. .X...",
".......  ...XX....XX.   .....XX.",
"........ ...X......... ......X..",
"........ ...X........  .....XX..",
".........XXX.X........ ......X..",
"..........X............X.X.XX.X.",
"......................X.XXXX....",
"..  .......... ..........X..X...",
". ..X..........X................",
". ..X...........................",
"..XX.................. ........."
};
