/* XPM */
static char *_652e1c6b0644b7ab3ab4effec7bf741QhXCxUYn04Ws7XeK[] = {
/* columns rows colors chars-per-pixel */
"48 48 136 2 ",
"   c #0B2500",
".  c #0B2B00",
"X  c #122D00",
"o  c #0C3400",
"O  c #0E3B00",
"+  c #123200",
"@  c #143C00",
"#  c #193D00",
"$  c #0F4700",
"%  c #144300",
"&  c #1B4300",
"*  c #144B00",
"=  c #1B4C00",
"-  c #145300",
";  c #1B5400",
":  c #155A00",
">  c #1C5C00",
",  c #214E00",
"<  c #235400",
"1  c #295300",
"2  c #245C00",
"3  c #2B5D00",
"4  c #156100",
"5  c #1D6400",
"6  c #146D00",
"7  c #1C6B00",
"8  c #167400",
"9  c #1B7300",
"0  c #1D7B00",
"q  c #236400",
"w  c #2B6300",
"e  c #236B00",
"r  c #2B6C00",
"t  c #346D00",
"y  c #237300",
"u  c #2B7400",
"i  c #247C00",
"p  c #2B7B00",
"a  c #337400",
"s  c #337C00",
"d  c #3A7D00",
"f  c #407E00",
"g  c #1D8300",
"h  c #1E8E00",
"j  c #1C9F00",
"k  c #248300",
"l  c #2B8300",
"z  c #248C00",
"x  c #2C8B00",
"c  c #338300",
"v  c #3B8400",
"b  c #348C00",
"n  c #3B8C00",
"m  c #249300",
"M  c #2C9300",
"N  c #259C00",
"B  c #2B9B00",
"V  c #339300",
"C  c #3B9300",
"Z  c #339B00",
"A  c #3C9C00",
"S  c #1FAD00",
"D  c #23A500",
"F  c #2CA300",
"G  c #2DAC00",
"H  c #34A300",
"J  c #3BA400",
"K  c #35AC00",
"L  c #3BAC00",
"P  c #2DB300",
"I  c #2BB800",
"U  c #34B400",
"Y  c #3CB400",
"T  c #34BB00",
"R  c #3CBB00",
"E  c #438200",
"W  c #498700",
"Q  c #418C00",
"!  c #4D8E00",
"~  c #439400",
"^  c #499400",
"/  c #449C00",
"(  c #4C9B00",
")  c #519600",
"_  c #539C00",
"`  c #44A400",
"'  c #4BA300",
"]  c #44AB00",
"[  c #4BAC00",
"{  c #54A400",
"}  c #5CA200",
"|  c #53AC00",
" . c #5BAE00",
".. c #44B400",
"X. c #4BB400",
"o. c #43BC00",
"O. c #4CBC00",
"+. c #54B400",
"@. c #5AB400",
"#. c #53BB00",
"$. c #5DBD00",
"%. c #60AC00",
"&. c #66B600",
"*. c #69B300",
"=. c #62BA00",
"-. c #27C200",
";. c #2EC700",
":. c #2CC800",
">. c #32C600",
",. c #35C400",
"<. c #34C500",
"1. c #35C600",
"2. c #3AC300",
"3. c #3CC300",
"4. c #3CC400",
"5. c #3DC400",
"6. c #36C800",
"7. c #3CC800",
"8. c #41C100",
"9. c #45C000",
"0. c #42C600",
"q. c #47C500",
"w. c #4DC000",
"e. c #49C400",
"r. c #4EC600",
"t. c #43C800",
"y. c #4AC900",
"u. c #51C000",
"i. c #56C300",
"p. c #53C500",
"a. c #55C700",
"s. c #59C200",
"d. c #5CC000",
"f. c #5AC400",
"g. c #51C800",
"h. c #60C000",
/* pixels */
"[ | [ [ n . 9 M H x x H H J A e , ! ^ ~ ~ ~ ~ [ | } w b ' / ` [ [ ' ' L p + a n / / ] ....] { t ",
"$.&.s.a.[ > U o.8.2.2.,.,.>.5.B l s.$.$.s.p.$.=.$.d.V ] #.u.w.e.#.#.#.q.U 5 L w.a.p.a.p.s.r.p./ ",
"$.&.$.s.X.e Y R ,.2.2.,.2.2.5.F b f.$.d.$.s.$.=.$.$.c L w.w.q.5.#.@.#.e.T i o.r.s.p.p.s.$.i.t.` ",
"@.+.#.s.[ > Y 5.5.6.6.5.o.o.3.Z c a.i.s.f.f.i.#.$.+.2 B 8.w.e.0.9.+.O.8.L p #.u.#.w.#.O.#.i.i.~ ",
"> 5 y i ; . e i i i 8 i l p y - * u p s a r r q r 2 X ; 5 u u 5 : 5 7 e > % y y e > ; > e u u & ",
"p J K F x l b Z Z p $ N G H C s d C / / u @ d ~ ` ' ( / A / n = - l V Z H H Z H Z l = ~ | { ( E ",
"H 3.3.3.3.3.5.5.o...g T 0.0.e.#.#.#.@.#.` y X.u.e.#.#.w.w.#.+.a M o.o.8.5.5.5.5.o...u O.p.s.a.=.",
"F 8.3.3.3.3.3.2.o...k R w.e.e.w.O.#.@.#.] l #.O.w.e.#.#.#.e.w.b B ,.3.5.5.5.5.5.o.X.e X.p.r.r.$.",
"z R o.,.T P P T R R 5 Z o.o.o.q.e.9.O.8.J e [ O.O...X.X.w.O...p g I T T 2.5.5.T U F - ` u.e.#.@.",
"q u y 7 5 : 8 0 0 i % = 7 y k u 2 5 e p r = u l s u ; ; p p e & * 7 7 5 > 5 p y y 7 = w t r w 2 ",
"#.[ ' ~ E : U Y Y J ` L P R T i * b A [ @.#.O.+.%.} w s { { { _ _ ( ' / a ; L Y Y o.o.| ' / ~ a ",
"r.e.d.s.+.p ..O.o.8.3.>.:.5.5.B g 7.q.p.i.i.=.=.&.*.d ' @.@.@.%.@.@.+.w.' y o.8.,.5.5.8.e.#.w.` ",
"s.$.$.f.X.e ..X.o.8.2.3.3.,.5.H Z t.0.q.p.s.$.&.&.*.d ] #.@.O.#.#.#.#.#.| r | @.@.#.q.9.O.#.u.J ",
"@.+.] J l o l K G F m B J T T z b o.R ..] ..X.{ / n = V [ ] X.X.+.| ] ] ~ > b ' | | X.X.[ K J e ",
", r e q 2 1 r a p r + % q a a < 2 c x c q * i u 5 * @ > q q ; & 3 d d s 2 & w r t 3 # 2 r w w 2 ",
"u [ +.#.$.=.=.&.$.+.3 ~ X.O.+.+.X.O.q.q.' y T R Y Y L ] ` / b > V @.@.+.| | | { { ! # v X.O.#.#.",
"V i.$.$.$.=.=.=.$.u.c Y 7.7.r.w.r.p.0.7.Y M 8.o.o.3.o.o.o.X.' p A +.+.+.+.#.+.+.@.{ 2 K 7.7.e.$.",
"` s.s.s.s.=.$.$.d.i.i T y.q.t.t.e.r.a.y.X.m 5.o.8.3.o.o.o.o.O.p C #.#.#.@.#.#.O.#.+.y U q.q.r.d.",
"l J Z V b b l b A V - A [ [ ] ' ] J ` C r - m B F U L J Z M M : ; b V C / ( / ` J M : M A Z M b ",
"v n a 3 1 + r c l s s b n v d 3 @ q y y > > 7 g m M = > y e y q ; 9 u p q + w r u u u b c e 2 , ",
"=.$.=.$.{ q X.#.e.#.#.#.@.@.#.~ y ....2.,.,.R 5.5.o.e k R ..o.....,.2.o.Y y X.+.O.#.#.w.#.o.X.^ ",
"$.$.s.$.+.e ..#.8.8.q.#.#.#.u.~ z 3.O.8.5.,.2.o.3.o.p m o.o.o.o.8.3.,.,.,.B e.#.9.9.q.e.#.O.O./ ",
"s.=.=.=.| : H 2.0.q.y.q.e.u.u.A z 0.O.O.5.,.5.5.0.8.0 F o.O.o.5.,.8.5.6.T M e.e.q.0.q.q.#.#.w./ ",
"s n ^ ( d   : 0 l b l x V V l 5 7 Z Z Z M x V m z i O 8 n C Z M m m B B 0 * k V C c i k Z / C q ",
"q Q ~ ~ C Z Z ~ Q v * k H Z x V Z K H A y = W ~ ~ n n n C ~ ~ < 0 Z Z M i i 0 k i ;   s / / ~ ~ ",
"Z #.$.#.#.q.q.e.e.O.l R 8.o.o.8.5.5.8.o.J c *.=.h.d.a.p.a.d.f.C H 8.o.3.3.3.,.2.3.K ; [ f.s.f.f.",
"B q.q.9.#.e.,.>.5.8.b R 8.o.o.5.;.:.,.o.V s $.$.$.$.d.s.s.a.a.C Z 3.o.3.3...o...o...e ] s.i.f.s.",
"8 P T 0.#.w.0.q.e.o.l U o.o.R U T T T R x q $.$.$.#.i.i.$.i.a.s k R Y R ..o.8.o.o.o.5 z ..#.s.p.",
"O : 6 i u q p x l 7 @ 5 l k 9 * : e 7 7 ; % u r e q > p x l p & O : 5 5 5 e l p i M = % q e s r ",
"L J Z A f < ' X.X./ ~ ' | | [ 3 2 { ' ( ) [ [ / / ~ = Z Y ..A C V M Z b < O b / ' [ ] ` / / A r ",
"s.g.y.p.{ a $.i.e.a.$.$.=.=.s.~ v =.s.$.&.$.f.g.p.a.c ] e.q.e.e.e.5.7.t.J 7 o.w.#.e.w.w.O.#.O.` ",
"a.a.r.r.X.e @.s.a.$.&.&.=.=.s.^ c =.$.=.$.$.s.a.p.$.Q ] #.q.e.0.e.e.q.t...p O.w.e.5.#.#.O.9.w./ ",
"O.#.o.P M ; X.i.e.#.+.[ [ +.$.d r +.+.#.@.O.+.$.$.$.a x ] Y T 8.5.>.,.5...i K ..O.o.8.o...Y J p ",
"- 5 > : * % l p 5 e ; > e u p = % e r u q - 7 u s u % O : : 4 : 8 h 0 9 y % - 5 e ; * : 5 > ; % ",
"8 F H J L R T L A Z 5 / #.O...J ] | { [ u > J K P G G D D K K > k R P S F H H H V u o x ` ' { | ",
"H o.R o.3.5.,.R o.R l +.$.#.d.d.p.p.r.p./ l 2.:.:.5.5.6.>.>.5.k K 5.5.,.>.>.,.,.Y H 5 R y.a.s.=.",
"L o.,.3.o.5.,.2.2.R p +.a.s.=.&.$.e.5.p.[ z >.,.o.o.o.o.3.8.o.l K 7.5.3.>.:.>.,.3.Y y o.s.&.&.=.",
"M U T T L G K U T K * c ' _ { +.@.+.+.| ~ 5 B K Y Y ..Y Y U N : g G U Y Y T R U G H > J  .%.+.[ ",
"7 7 7 7 * o 7 i z l 5 7 7 5 5 ; < c a w 2 ; e u p l ; : y 7 7 > q 9 y i e 5 x i 0 g 5 7 e r q % ",
"..Y Y Y V * L R ..o.3.5.T R Y p y 9...X...O.#.+.+.O.5 l ] ] R X.X.o.o...J i 2.R 2.,.,.-.U Y Y p ",
"3.8.8.8.Y y ..O.8.o.o.8.3.8.8.M x e.q.q.0.w.O.+.@.#.p H O.o.3.o.3.2.o.o.Y k T 3.3.2.5.,.,.3.3.H ",
"8.O.o.o.Y k ..o.9.9.8.5.8.8.3.M l e.q.0.O.w.q.#.@.#.x K 5.2.3.5.5.8.5.0.R 7 L 3.3.5.5.5.5.o.3.K ",
"z M K J V : Z J Z M k g B B B 5 % ~ ( ` A M M ' ' / q 8 j F V m B K G G m . 4 z z z z m B J J l ",
"> p l v a w r u u r   * i 0 y 5 q u p p q O q l c p q q 7 9 5 . : V V c r q u c c u % q p c c a ",
"' $.$.$.$.=.#.e.i.+.> F 3.R T ,.o.o.o.o.J i Y R ....X.....2.R e M y.u.#.#.w.w.u.w.e.s | p.r.w.$.",
"| =.=.$.$.$.s.i.p.#.u P 8.,.,.3.o.o.o.o.` l o.,.o.o.......3.6.z B e.e.e.e.w.#.#.w.9.c @.$.$.u.d.",
"` $.=.=.i.a.a.d.p...e K o.3.3.o.X.X.8.8.J i o.,.,.o.2.3.o.3.6.z Z O.9.w.e.w.#.e.O.X.e [ $.&.d.d.",
": l ~ ( ` ' ` / V e o 9 k x V M M M M H p * M N N F H K Z B B 5 > y l ~ J B l i i e . 7 b / ` ' "
};
