/* XPM */
static char *_45259fa53e44619d045ee420a715177NiOU1fAkHSzqM0lv[] = {
/* columns rows colors chars-per-pixel */
"32 32 11 1 ",
"  c #1A151F",
". c #264042",
"X c #3C7253",
"o c #6D767B",
"O c #6BB453",
"+ c #DD9254",
"@ c #EAD074",
"# c #5590B4",
"$ c #B3BDB6",
"% c #81D7CE",
"& c #F6F5DE",
/* pixels */
"#X.############X.############X.#",
"XX..###########X.###########XX..",
"$$$o##########X$$.##########&$$$",
"$%%o#X#X#X#X##X%%.##X#X#X#X#&%%$",
"$##o$$$$$$$$$X$##$.$$$$$$$$$&##$",
"$$$o$%%$$%%$$X$$$$.$$%%$$%%$&$$$",
"$%%o$##$$##$$&$%%$o$$##$$##$&%%$",
"$##o$$$$$$$$$&$##$o$$$$$$$$$&##$",
"$$$o$%%$$%%$$&$$$$o$$%%$$%%$&$$$",
"$%%o$##$$##$$&$%%$o$$##$$##$&%%$",
"$##o$$$$$$$$$&$##$o$$$$$$$$$&##$",
"$$$o$%%$$%%$$&$$$$o$$%%$$%%$&$$$",
"XXXo$##$$##$$&XXXXo$$##$$##$&XXX",
"$$$.$$$$$$$$$O$$$$.$$$$$$$$$O$$$",
"$%%oXXXXXXXXX&$%%$oXXXXXXXXX&%%$",
"$##o$$$$$$$$$&$##$o$$$$$$$$$&##$",
"$$$o$##$$##$$&$$$$o$$##$$##$&$$$",
"&&&&&&&&&&&&&&&&&&&&&&&&&&&&&&&&",
"$$$$$$$$$$$$$$$$$$$$$$$$$$$$$$$$",
"oooooooooooooooooooooooooooooooo",
"    ++  +++ +++  +  ++ + ++ ++ +",
"  @  @  @ @ @@  @@@  @ @  @  @  ",
"+   + +   + +++ + +  + + ++  + +",
"&&&&&&&&&&&&&&&&&&&&&&&&&&&&&&&&",
"$$$$$$$$$$$$$$$$$$$$$$$$$$$$$$$$",
"oooooooooooooooooooooooooooooooo",
"&&&&&&&&&&&&&&&&&&&&&&&&&&&&&&&&",
"&$$$$o&$$$$o&$$$$$$o&$$$$o&$$$$o",
"&$%%$o&$%%$o&$$$$$$o&$%%$o&$%%$o",
"&$#%$o&$#%$o&$$  $$o&$#%$o&$#%$o",
"&$##$o&$##$o&$$  $$o&$##$o&$##$o",
"&$$$$o&$$$$o&$$oo$$o&$$$$o&$$$$o"
};
