/* XPM */
static char *_bbed1cc46244a3ee394e4d9ba287283velECDnWE9ApPZAM[] = {
/* columns rows colors chars-per-pixel */
"48 48 225 2 ",
"   c #101C00",
".  c #201D00",
"X  c #132200",
"o  c #1B2800",
"O  c #0D3E00",
"+  c #183400",
"@  c #153B00",
"#  c #1B3B00",
"$  c #272800",
"%  c #233200",
"&  c #243C00",
"*  c #343500",
"=  c #194300",
"-  c #144A00",
";  c #1C4A00",
":  c #035B00",
">  c #145700",
",  c #1D5400",
"<  c #1C5C00",
"1  c #274300",
"2  c #234B00",
"3  c #2C4D00",
"4  c #374900",
"5  c #334C00",
"6  c #245300",
"7  c #2C5400",
"8  c #225C00",
"9  c #2D5B00",
"0  c #335D00",
"q  c #395900",
"w  c #196400",
"e  c #1C6B00",
"r  c #067900",
"t  c #187900",
"y  c #1C7B00",
"u  c #256400",
"i  c #2B6400",
"p  c #246A00",
"a  c #2B6C00",
"s  c #326400",
"d  c #3A6500",
"f  c #346C00",
"g  c #3B6B00",
"h  c #227400",
"j  c #2B7500",
"k  c #237B00",
"l  c #2D7C00",
"z  c #347300",
"x  c #3B7300",
"c  c #347B00",
"v  c #3C7B00",
"b  c #465700",
"n  c #466500",
"m  c #436D00",
"M  c #546D00",
"N  c #437400",
"B  c #4C7300",
"V  c #447B00",
"C  c #4A7D00",
"Z  c #577800",
"A  c #6C6800",
"S  c #677900",
"D  c #7B7D00",
"F  c #048400",
"G  c #0B8900",
"H  c #178700",
"J  c #1D8B00",
"K  c #089700",
"L  c #189600",
"P  c #258300",
"I  c #2B8400",
"U  c #248B00",
"Y  c #2B8C00",
"T  c #338300",
"R  c #3B8400",
"E  c #338C00",
"W  c #3B8B00",
"Q  c #269300",
"!  c #2C9400",
"~  c #249B00",
"^  c #2B9C00",
"/  c #349400",
"(  c #3B9400",
")  c #349B00",
"_  c #3C9C00",
"`  c #0BAB00",
"'  c #19A700",
"]  c #0CB100",
"[  c #2CA300",
"{  c #24AB00",
"}  c #2BA800",
"|  c #33A300",
" . c #3BA300",
".. c #34AB00",
"X. c #3CAC00",
"o. c #2CB400",
"O. c #28BA00",
"+. c #34B300",
"@. c #3CB400",
"#. c #35BC00",
"$. c #3BBC00",
"%. c #448500",
"&. c #4B8300",
"*. c #438D00",
"=. c #4B8B00",
"-. c #578600",
";. c #5B8400",
":. c #538C00",
">. c #449400",
",. c #4B9400",
"<. c #429A00",
"1. c #4C9C00",
"2. c #549400",
"3. c #5B9400",
"4. c #549B00",
"5. c #5C9C00",
"6. c #6C8600",
"7. c #688900",
"8. c #788800",
"9. c #679800",
"0. c #749200",
"q. c #799600",
"w. c #43A300",
"e. c #4CA400",
"r. c #44AD00",
"t. c #4DAA00",
"y. c #54A400",
"u. c #5BA300",
"i. c #53AD00",
"p. c #5AAA00",
"a. c #44B200",
"s. c #4BB400",
"d. c #44BB00",
"f. c #4CBC00",
"g. c #53B400",
"h. c #5CB300",
"j. c #54BC00",
"k. c #5CBC00",
"l. c #63A400",
"z. c #6CA500",
"x. c #63AC00",
"c. c #6CAC00",
"v. c #78A600",
"b. c #73AD00",
"n. c #62B400",
"m. c #6CB400",
"M. c #63BB00",
"N. c #6DBD00",
"B. c #75B400",
"V. c #7CB300",
"C. c #73BC00",
"Z. c #7CBD00",
"A. c #1CD100",
"S. c #29C800",
"D. c #34C300",
"F. c #3DC400",
"G. c #35C900",
"H. c #3CCA00",
"J. c #2CD300",
"K. c #3AD400",
"L. c #3CEA00",
"P. c #2EF800",
"I. c #3BF600",
"U. c #43C300",
"Y. c #4CC400",
"T. c #43CC00",
"R. c #4CCB00",
"E. c #53C300",
"W. c #5BC300",
"Q. c #54CA00",
"!. c #5CCB00",
"~. c #43D300",
"^. c #4BD400",
"/. c #42DC00",
"(. c #4CDB00",
"). c #53D500",
"_. c #5DD300",
"`. c #53DC00",
"'. c #5BDE00",
"]. c #64C400",
"[. c #6DC400",
"{. c #66C900",
"}. c #74C300",
"|. c #7BC200",
" X c #7ACA00",
".X c #63D300",
"XX c #6BD300",
"oX c #63D900",
"OX c #77D700",
"+X c #45E500",
"@X c #4CE200",
"#X c #44ED00",
"$X c #4CED00",
"%X c #54E400",
"&X c #5CE500",
"*X c #53EC00",
"=X c #5BEB00",
"-X c #44F500",
";X c #4BF200",
":X c #49F900",
">X c #53F300",
",X c #5BF200",
"<X c #63E400",
"1X c #6BE200",
"2X c #64ED00",
"3X c #6BEC00",
"4X c #74E500",
"5X c #7AE700",
"6X c #72EB00",
"7X c #7AEC00",
"8X c #63F100",
"9X c #69F300",
"0X c #70F200",
"qX c #818D00",
"wX c #829000",
"eX c #82A900",
"rX c #90AC00",
"tX c #86B400",
"yX c #83BD00",
"uX c #8BBA00",
"iX c #92B900",
"pX c #A2B300",
"aX c #83C100",
"sX c #88DD00",
"dX c #84E500",
/* pixels */
"c.b.x.x.=.# [ H.~.#.$.R.R.^.Q.E 5 7.3.2.2.3.2.y.b.q.g d.!.Q._.XXXX_.!.(.o.& B :.4.1.t.s.h.p.z.m ",
"yXiX}.[.x.k +X=X*X$X;X-X-X-X;XF.R |.yXZ.}.[.e.( _ e./ ~.3X3X3X2X3X5X6X,X+Xk i.].[.].}.[.}.].[.1.",
"yXiXyX}.n.T %X=X;X;X>X-X;X$X;XG.( }.Z.|.yX}.e.( Q / l D.%X3X>X-X6XsX4X8X#XQ j.].}.[.[.}.yX}.Q.y.",
"V.B.N.}.u.a &X,X>X-X:X;X=X*X;XF.*.[.[.}.}.}.].m.i.1.u ' S.%X>X>X*X4X%X$X@X/ N.[.C.].N.N.N.}.}.2.",
"0 f c T 8 @ / | ) ) U I R I P w ; x %.v f g s 9 0 3 X - : e k H y k P Y I , c T z i 7 9 f N N 1 ",
" .Q.~.K.#.+.$.U.Y.w.e k k k a i c >.5.3.1 8 R ( <.=.&.N 8 O +   < U ! | | w.1.<.=.x # 2.c.v.9.;.",
"^.=X*X*X*X$X;X,X4X<XG.~.R.R.E.k.k.k.V.B.v r.&X%X`.{.N.h.y.e i & o.@X(.~.T.Y.s.t.5.7.7 M.[.}.}.yX",
"~.=X*X*X*X*X;X*X1X<XR.Q.!.Q.Y.E.k.k.V.m.*.s.1X`.).R.M.m.l.k e 2 o.L./.~.H.Y.s.t.9.7.7 n.].].].yX",
"$.*X=X#X#XL.L.$X2X&Xs.].!.Q.R.R.E.f.n.s.E +.<X`..XR.k.n.x.T w @ { L./.K.T.E.g.e.%.s # y.[.W.C.tX",
"j E E T l h U P k j , c W c l j c Y I c s l ..) R j p c =.i #   > J y e < u c p 8 6 2 x %.R V g ",
"M.x.u.3.Z 2 r.i.e.>.:.*.Q E P - p H.F.g.B.x.4.;.M b 4 %.9.-.;.Z v u p z 5 i (.@X*X*X=XOX.X_.).X.",
"W.].|.}.c.z h.N.M.W.E.F.H.U.H.^ { L.@X_.W.k.eXv.7.8.Z b.l.,.z.eXl.,.U ~ Y T <X,X;X:X>X,X2X5X2X).",
"|.Z.yX}.n.x m.m.M.k.E.E.E.F.U.} G.:X$X@X_.[.B.v.z.wX-.h.Y H ~ w.w.) J G k c sXsXdX3X,X,X3X6X6X^.",
"V.V.p.t.R @ ,.g.d.a.r.g.M.U.F.[ Q #.D.d.f.U.g.b.u.3.f X._ Q ! _ / E ) t.,.a W.OXOXOX<X<XoX^.^.! ",
"4 d f i 0 q x =.>.&.2 i =.t.w.j O u E 1.v = u f a i 2 j T R v q g :.2.=.d # 0 q b b 1 d v x z s ",
"B p.m.M.Z.uXyXtXyXB.q -.p.f.w.P L ~ +.U.w.h @.@.r...Q / 1.l.4.7 N qX8.7.6.;.6.D D A * ;.n.k.M.N.",
",.}.yXZ.yXuXuXuXuX}.R g.R.Y.+.H G L { #.s.| E.j.@.' L ..h.m.c.v -.0.0.0.0.9.wXwXwX8.5 t.R.R.].yX",
"u.|.|.|.|.yXyXyXaX}.j a.!.E.o.G L d.W.Q.g.^ E.f...L X.j.N.].M.R ;.0.9.0.0.0.0.9.0.0.9 @.Q.!.].aX",
"R e.1.,.=.&.%.=.4.>.; i.N.M.r.I / e.>.c 3 w a.r...@.s.t.>.c z = 5 N N Z 6.6.6.7.;.V 2 ( e.1.>.>.",
"-.=.B 0 q 1 E t H _ <.Q.W.g.t.c 7 C l h , 6 u p < 2 o o % o $ $ . X % % % % d m z v %.4.4.W v g ",
"yXyXyXZ.z.c D.] S.1X6X4XdXdX6XE.R x.h.d.$.$.f.Y.E.k.6 $ g s m M n i g B N z n.B.k.N.N.[.}.].C.l.",
"Z.Z.|.yXm.k ` ` J.@X$X2X4X5X6X!._ h.n.g.Y.H.R.!.)..Xf * Z B Z Z C N p a v 1.].N.W.W.W.].C.N.N.p.",
"|.yXyXuXc.e ] A.A.S.$X,X,X6X7X_.w.n.m.n.E.R.Q.^.)..Xu 5 Z n s i f x z z V ,.].W.Q.E.W.W.C.C.[.1.",
"C :.9.9.C # H { { [ X.F.T.E.f.( 6 d v *._ 1.p.U.Y.Y.= & M Z N s 8 s N &.V a ) ..r.>.z j v V V 6 ",
"E n.M.j.j.U.U.f.d.s.j _ t.y.1.4.2.5.9.3.f 1 Z 4.y.4.W 2.u.b.c.d j e.g.d.#.+.S.J.J.o.- v ,.3.:.,.",
"R.6XdX5X3X>X>X*X>X=X@.s.j.n.m.M.j.k.k.n.*.B pXuXyXyX[.[.|.aX|.=.d.2X<X*X$X$X-X#X$X#X! c.}.}.}.}.",
"K.,X,X8X3X,XI.P.P.;Xd.f.Y.M.C.Y.G.H.Y.k.R B uXZ.Z.yX|.|.aX}.}.=.a.,X=X*X$X*X*X%X%X*XX.x.|.|.}.}.",
"O.I.-X>X5X8X-X;X;X*X| #.Y.j.j.$.F.U.U.j.c 0 uXyXyXyX[.}.Z.C.N.V / 2X<X*X<X&X$X*X%X*X..W m.Z.}.[.",
"< J ~ ) *.l P U Y P - , z %.T 6 6 C v f 2 & -.V d 0 i R v f 6 o , ..| ~ E / | ) Y E u 7 m V *.v ",
"i.e._ 1.Z 1 V >.<.*.>.i.m.V.N.g 4 8.6.S A q q # % o = s.j.h.1.*.*./ ( R 3 > H.Q.!..X.X_.Q.!.).| ",
"}.{.{.].c.&.C.[.Q.].C.C.C.yX|.,.n 0.7.7.D M d - B 7 z {..X_._..XXX^.^.^.a.U =X=X3X,X2X3X6X4X8X).",
"[.}.{.{.n.z B.].].Z.tXuXZ.yX|.4.m 7.6.8.S d 0 - - q =.OXOX%X&X%X`.'.@X@XR.! <X2X=X;X6X6X3X,X2X_.",
"N.N.k.X./ 2 g.W.W.C.B.p.e.u.x.x 1 n B S M 8 M n - 7 a Y..X`.+X$X-XI.#X$X(.Q @X&X=X*X>X=X=X*X'.a.",
"8 j a p 8 8 a.a.W R i l E T c < , u a x 0 X $ 4 3 5 o = < p y t t J J Q Y < J } +.[ h y I l j 8 ",
"~ K.T.^.(.$X#X(.Q.T.! oX3X8X,X#X*X<X4X3Xa.= g T Y ! Y Y ! |  .p J U.J.A.J.H./././.U.8 W e.u.l.c.",
"R.=X*X=X*X;X;X=X<X&XX.OXdX7X7X3X8X8X8X0X!.l E.U.H.Y.Y.T.H.F.Y./ F.,X-X-XI.-X-X;X$X+X! f.!.}.|.uX",
").=X-X*X=X-X-X;X*X&X^ oX8X6XdXdX3X,X:X9XoXI U.U.k.M.k.k.W.E.k.( G.>X;X;X-X-X-X>X>X;X} j.|.iXiXuX",
"$.@X#X+X(.K.`.%X*X(.e ) j.M.]..XXXXX.X{.i.i g.j.k.k.W.k.k.f.X.h O.-X*X&X=X*X%X(.H.$.k e.eXrXm.c.",
"j k k h < @ I s.a. .c e > - = # f =.m q 3 7 R W W c i l T l h < U o.F.U.X.E X.E Y Y k U T T l 2 ",
"k.s.i.g.>.X y ! J J } L r | e.T *.p.i.p.h.M.m.b.n.t.# *.h. .L G r L d.!.s./ *X=X$X;XI.P.L.+X`.| ",
"E.W.W.W.t.@ r r r r G F F ~ a.^ >.i.g.j.E.W.{.|. X{.u s...F F F K ` O.E.E./ $X=X=X>X-X-X;X;X=XT.",
"W.M.k.k.g., ! ~ ^ L { ' L G G r =.x.h.k.N.].!.}.aX}.u X.' F K O.S.' ` ' o.Y `.>X*X;X-X;X>X=X=X^.",
"E >.e.t.>.+ 0 v v c j y Q ^ / e 5 M 6.3.4.w.k.}. X}.2 y F F J ^ ..[ L G t @ Y +.#.@.#.#.H.Q.!.X.",
"9 v T &.B q 9 d d s X ; I I E l i f x z a ,  .!.!.E.W E ~ [ U ; k a.r.w.E E ) r.r._ 8 f R W %.V ",
"z.yXZ.Z.yXyXN.W.[.m.8  .E.f.f.U.j.M.k.k.y.^ %X*X&X<X1X1X%X#X#X~ G.,X3X6X6X9X8X6X3X2X>.b.[.].].C.",
"b.yXuXZ.uXZ.|.}.].C.z @.W.U.Y.E.k.M.k.k.u. .=X-X=X<X<X1X<X$X-XO.K.8X,X,X2X3X6X6X3X2X1.tXyXZ.}.|.",
"u.yXyXyX|.[.}.aX].g.a r.M.E.E.M.m.m.W.W.e./ =X-X;X*X;X*X=X*X;X#.T.3X,X2X8X8X3X3X3X&XT c.uXiXaX|.",
"8 R 9.9.u.l.y.5.,.f + j T W ,.>.>.( >.e.v < D.D.G.H.T.R.Y.D.U.I Y ..X.M.R.H.d.@.o.) @ i *.5.y.l."
};
