/* XPM */
static char *c60a4106aaa0484497048a844531c734Ifm2GjU4IyAWFBQO[] = {
/* columns rows colors chars-per-pixel */
"48 48 230 2 ",
"   c #040800",
".  c #091B00",
"X  c #301C00",
"o  c #0E3100",
"O  c #173700",
"+  c #362800",
"@  c #283600",
"#  c #353A00",
"$  c #590800",
"%  c #481800",
"&  c #5C1300",
"*  c #551A00",
"=  c #670E00",
"-  c #790C00",
";  c #671900",
":  c #711900",
">  c #482900",
",  c #522400",
"<  c #5C2400",
"1  c #5B2B00",
"2  c #493B00",
"3  c #5A3300",
"4  c #533C00",
"5  c #5B3D00",
"6  c #622300",
"7  c #632B00",
"8  c #6C2900",
"9  c #782600",
"0  c #633200",
"q  c #693800",
"w  c #773700",
"e  c #184900",
"r  c #1B5800",
"t  c #2A4200",
"y  c #2B4A00",
"u  c #364700",
"i  c #265500",
"p  c #2B5B00",
"a  c #385800",
"s  c #1C6800",
"d  c #1B7700",
"f  c #286400",
"g  c #246A00",
"h  c #2B6C00",
"j  c #376500",
"k  c #336B00",
"l  c #217300",
"z  c #297800",
"x  c #357300",
"c  c #3B7500",
"v  c #367C00",
"b  c #3C7D00",
"n  c #474600",
"m  c #5B4300",
"M  c #554900",
"N  c #455800",
"B  c #585700",
"V  c #535A00",
"C  c #674800",
"Z  c #714800",
"A  c #645400",
"S  c #6A5600",
"D  c #6C5A00",
"F  c #745700",
"G  c #466800",
"H  c #586800",
"J  c #487300",
"K  c #427C00",
"L  c #4A7D00",
"P  c #577900",
"I  c #676700",
"U  c #7A6A00",
"Y  c #677A00",
"T  c #737600",
"R  c #8B1100",
"E  c #9A1600",
"W  c #A20900",
"Q  c #892800",
"!  c #883600",
"~  c #993800",
"^  c #874600",
"/  c #8E5600",
"(  c #847000",
")  c #A96000",
"_  c #1D8400",
"`  c #1D9000",
"'  c #238400",
"]  c #2C8400",
"[  c #248B00",
"{  c #2C8C00",
"}  c #338400",
"|  c #3B8400",
" . c #348C00",
".. c #3A8A00",
"X. c #239300",
"o. c #2C9300",
"O. c #249C00",
"+. c #2B9C00",
"@. c #359300",
"#. c #3C9300",
"$. c #349B00",
"%. c #3C9C00",
"&. c #1CA200",
"*. c #29A600",
"=. c #34A300",
"-. c #3CA300",
";. c #33AB00",
":. c #3BA900",
">. c #2AB700",
",. c #34B400",
"<. c #39B700",
"1. c #3CBA00",
"2. c #438400",
"3. c #4B8400",
"4. c #438C00",
"5. c #4B8B00",
"6. c #588800",
"7. c #439300",
"8. c #4C9300",
"9. c #449B00",
"0. c #4B9B00",
"q. c #559300",
"w. c #549B00",
"e. c #5B9C00",
"r. c #668700",
"t. c #728E00",
"y. c #679600",
"u. c #629D00",
"i. c #769900",
"p. c #44A300",
"a. c #4BA400",
"s. c #44AB00",
"d. c #4CAB00",
"f. c #54A500",
"g. c #5BA300",
"h. c #54AC00",
"j. c #5DAB00",
"k. c #44B400",
"l. c #4CB500",
"z. c #43BB00",
"x. c #4CBB00",
"c. c #53B300",
"v. c #5CB400",
"b. c #54BC00",
"n. c #5DBC00",
"m. c #62A400",
"M. c #66A900",
"N. c #6BAC00",
"B. c #76A900",
"V. c #64B400",
"C. c #6CB400",
"Z. c #64BC00",
"A. c #6CBC00",
"S. c #73B400",
"D. c #7DB300",
"F. c #74BD00",
"G. c #7CBD00",
"H. c #2AC800",
"J. c #35C300",
"K. c #3CC400",
"L. c #32CD00",
"P. c #3CCC00",
"I. c #2CD500",
"U. c #3DD300",
"Y. c #3ADA00",
"T. c #1EE500",
"R. c #39E800",
"E. c #29FA00",
"W. c #39F600",
"Q. c #44C400",
"!. c #4CC300",
"~. c #43CB00",
"^. c #4CCB00",
"/. c #53C300",
"(. c #5CC200",
"). c #53CC00",
"_. c #5BCB00",
"`. c #44D400",
"'. c #4CD400",
"]. c #43DD00",
"[. c #4BDB00",
"{. c #54D300",
"}. c #5CD300",
"|. c #52DB00",
" X c #5CDB00",
".X c #64C400",
"XX c #6CC300",
"oX c #63CB00",
"OX c #6BCD00",
"+X c #74C300",
"@X c #7BC100",
"#X c #79C900",
"$X c #63D500",
"%X c #6AD600",
"&X c #63DB00",
"*X c #76D700",
"=X c #43E200",
"-X c #4BE300",
";X c #44EB00",
":X c #4CEC00",
">X c #53E400",
",X c #5DE500",
"<X c #53ED00",
"1X c #5CEB00",
"2X c #44F400",
"3X c #4CF300",
"4X c #47F800",
"5X c #54F300",
"6X c #5BF200",
"7X c #51F800",
"8X c #64E600",
"9X c #6BE400",
"0X c #64ED00",
"qX c #6BEC00",
"wX c #75E700",
"eX c #7AE600",
"rX c #72EB00",
"tX c #7BEB00",
"yX c #63F200",
"uX c #6AF100",
"iX c #849C00",
"pX c #85A800",
"aX c #85B500",
"sX c #83BD00",
"dX c #8BBA00",
"fX c #91B800",
"gX c #86C300",
"hX c #87DC00",
"jX c #84E400",
"kX c #89E400",
/* pixels */
"N.S.V.V.8.e <.].-XQ.z.^.{.{.{.=.j i.y.u.u.y.e.M.aXpX2.^.&X X&X*X*X&X X>XL.y P 6.e.f.h.b.V.V.B.r.",
"sXfX+XXXV.{ :X1X<X:X3X2X2X2X3XP.7.@XG.G.+XXXsXdXsXG.d.>XrXqXqX0XqXwXrX6X;X{ c..X+XXXXX.X+X.XXXj.",
"sXdXsX+XV.@.>X1X3X5X5X2X3X:X4XP.9.+XG.@XsX+XG.dXG.G.a.>X0X0X5X2XqXkXwXyX2X*.b..X+X.XXX+XsXXX/.v.",
"aXD.F.+Xj.] ,X6X5X4X4X3X<X<X5XP.9.+X+X+X+X+XXXF.F.S.| ].6XuX6X7X6XrX0X5X<X-.+X+X+X.X+XA.F.+X+Xu.",
"k x }  .g e $.;.=.=.X.] ..] [ d i | 4.2.x 2.4.c k i . s _ { { [ _ ' ] ] z e f h f p p k x K K a ",
"k.).`.U.J.1.Q.~.).k.d d ' ' z x | 9.g.e.e p b.x.s.2.j O .         . o O e r p h j i O e.N.B.u.r.",
"[.<X<X<X5X3X3X5XwX9XY.`.'.^./.n.n.n.D.S.c  .8X>X|.oXXXv.e.6.G t X.1.K.P.P.!.l.h.e.6.p Z.XX+X+XsX",
"Y.<X<X<X<X<X3X<X9X8X|.)._.).!./.n.n.D.S.8.k.9X|.{.).Z.V.N.m.q.j L.R.].U.P.!.l.d.u.r.f n.XX.XXXsX",
"P.<X1X2X;X;XR.:X1X1X!.oX_.).^.^./.x.n.x.%.;. X|.$X^..XV.M.m.t.a H.R.=X].~./.l.h.w.2.i h.XX(.F.aX",
"} %.@.@.] l X.X.[ ' s ..#... . ...o.@.v p y x  .7.%.p.h.N.i.t.y &.R.Y.K.k.k./.x.0.| p 2.5.7.4.c ",
"A.V.j.u.6.r k.c.a.0.6.7.o. .{ l i ,.K.9.3.J H V N N a h 3.6.H @ t k a u @ } <X3X<X1X1X*X&X X Xz.",
".X.X@X+XC.b V.A.Z.(./.K.P.Q.P.*.X.R.-X}.(.v.i.Y H H H G | f.y.P B q 1 3 > b 0X6X3X4X3X6X0XeX0X|.",
"@XG.sX+XZ.b S.S.Z.n././.(.K.K.,.Y.2X:X[._.A.B.i.r.H V n a } 4.L H Z q 5 4 6.hXhXjXrX6X6X9XqXrX|.",
"D.S.v.h.#.e 0.c.z.l.k.b.Z.Q.J.;.@.U.;X&X$X/.V.pXy.r.B M 2 n n N V M m A D 6.OX*XhX*X8X8X&X-X>X;.",
"a J c x k a b 8.0.q.p f 8.0.-.k X @ h p..X).Z.B.i.t.D F A 5 4 4 M M D T T P P L G a i c 2.2...k ",
"P V.A.A.G.dXsXdXsXG.y a j.s.f.6.v G c z ..9.h.j.B.6.4 4 M C Z Z F S A Y ( T I H H n @ y.V.Z.A.+X",
"w.+XsXG.G.dXdXdXdX+Xf  .^.^./..X/..X^.~./.G 4 n G M * * 6 w C C A A A V H H H H H I N l.^.!..XsX",
"j.@X@X@X@XsXsXsXgX+Xg %._./.Q.!./..X.X/.(.P : = % * * % * , , 3 q C C m 4 M S F A B a z.)._..X@X",
" .d.a.0.0.q.8.w.f.0.e a.A.XX.XsXXX.X.X.X+XD : ; = & * ; & < 7 0 0 > > 1 1 1 3 5 5 + @ p.c.d.p.a.",
"6.q.L c j i p.s.,.s.p.x.}.$X%XXXy.m.l.h.y.w 9 9 : = * 8 ; < 7 1 3 < & $ & 6 V G c K 3.w.f.%.4.3.",
"dXsXsXG.B.@.9XqX6XrXrXwXjXjXrX_.a L f.7.H w w ! Q : * < 8 6 6 8 0 7 6 & = M V.S.(.A.A.XXA..XF.N.",
"G.G.@XsXC.$.1X1X3X6X5X0XwXeXrXoXv h.M.c.c.3.C ! ~ Q ; * 1 q 7 0 q q Z C q H (.A._._._..XF.F.XXV.",
"@XsXsXdXC. .;X2X2X5X6X5X6XrXtX$Xp.V.N.V./.z.f.P / ! 9 6 < 7 7 7 w Z D S C J .X_.).)._._.F.F.+Xh.",
"5.e.y.m.5.e *.H.K.Q.1.,.1.l.k.$.f 0.v.v.b.Z.F.^.v.T q 6 ; ; * 0 5 B I F 3 y -.1.!.7.z ] ..3.L p ",
"=.Z..X/./.Q.~.!.!.!.r e x a y t t a 3.j.Z.Z.G._.{._.J : = = & * 1 2 N J K +.I.R.R.d . | w.e.q.w.",
"|.tXjXeXrX5X5X5X3X6X{ $.b.V.e.8.2.b c K w.Z.G..X_._.V R W R & B g.(._.].:X3X2X:X3X>.O C.+X+X+X+X",
"=X5X6X1XqX6XW.E.W.3X;.k.x.V.C.b.<.1.l.g.8.b h.).}.y.Q E E - $ 6.9X1X8X<X:X<X1X<X1X~.e C.@X@X+X+X",
"H.2X4X5XtXyX4X2X3X3XJ.P./..XZ.!.!.b.b.n.a.@ @ K e.^ E R : = = H 8X0X9X1X8X,X:X:X>X~.e 7.C.G.+XXX",
"s &.*.;.9. .+.O.X.[ s +.k.x.Q.!./.Z.(./.#.# > 0 ^ ~ Q 8 ; & $ 4 |.0X,X-X}.^.P.*.l r O p K 5.9.} ",
"l.d.:.f.6.y w.p.9.| x v 7.f.d.#.%.s.k.z.b M C Z / ) ^ 0 6 & $ % o.L.<.=.e d ].{.}. X X}.}.$X|.,.",
"+X.XoX.XB.c F.XX_..XF.F.F.sXG.f.G j p j y n 4 C / ) / q * % + a | <.Q.~.z d 6X<X9X6X0X0XrXeXyX>X",
"XXXX.X.XV.v S..X.XG.aXdXF.sX@Xj.k c H 5 % X > 2 D ( ( I Y 8.a.!.{.}.|.-Xz.o.0X0X<X3XrXrX9X6X0X X",
".XA.n.<.$.h b.(._.G.F.A..XG.@Xw.j y.i.T A > % X > n 5..X+X}.[.[.=XR.;X:X-X>.:X1X1X<X5X1X<X<X,X!.",
"s ] ] z g f -.:.p.c.7...7.f.V.b i G r.6.6.D < * * , L $X$X|.=XR.R.W.W.U.;.` H.Y.].K.[ _ o. .] l ",
">.R.[.[.-X:X;X-X{.].' p._.).'.J.1.x.Z./.c.Y F q 7 7 V ].:X:X-X[.;X:XR.T.I.].;X:X:X'.s #.h.j.N.C.",
"{.1X1X1X<X3X3X1X8X8X$.*XjXtXtXqXuXuXyXuX&X6.U A m C m p.U.,.} z U.5X2XW.W.2X2X2X3X2X*.x.(.XX@XdX",
"|.1X2X<X1X2X2X3X<X1X+.$XyXrXjXjXqX6X4XyX8XL I F C A A V G u # y P.5X3X3X2X4X4X3X5X2XL.(.@XdXfXdX",
"P.-X;X;X-XR.>X>X<X-Xd /.rXkXkXrXtXtXrXjXeXJ B D C C m 2 n # @ t >.4X<X1X1X<X|.~.;.' s d.aXfXS.C.",
"] { [ ' s g s.s.s.%.g +.,.-.9.9.g.v.C.F._.4.L r.y.6.n b 9.7.#...k.-X=XK. .] =.] l l d O.@.#. .f ",
"n.x.c.c.0.v C.Z.n.n./.K.1.s.9.h | 0.0.f.c..X+X@XOX_.h b.OXOX{._._._._./.-.o.5X1X3X4X2XE.W.:X>X,.",
"/.b.(.n.b.a.A.A./.Z.b.!.!./.(.$.0.c.c.b./._.oX@X#XOX$._.OXoX'.'.'.'.{._.x.o.<X<X<X5X2X2X3X<X<X'.",
"(.Z.n.n.b.b.Z..X.X.X!.Q./.b./.{ q.j.v.b.A..X_.#XgX*Xz.^.[.|.[.Y.].}.|.|.1.l ,X5X<X3X2X3X3X<X<X[.",
"$.0.d.h.0.z 5.0.0.9.@.=.k.x.c.s H iXpXC.M.p.a.g.m.5.r r _ [  .+.<.^.`.].*.o $.K.J.K.L.L.U.{._.k.",
"h  .@.6.P G k c b c o g =.=.-.z b g.g.p.} s $.-.%.@...] [ X.[ r X.Q.'.|.k.$.:.k.k.s.g v @.#.8.2.",
"N.sX@XG.sXsXF.(.XXA.h :./.b.!.Q.b.Z.n.b.h.;.<X<X1X8X9X9X1X3X2X>.Y.6XqXwXrXuXuXqXqXyX0.S.XX.X.X+X",
"S.dXdXG.dXG.@X+X.XF.| k.(.!.Q./.n.Z.n.Z.j.<.1X2X1X8X9X9X8X:X2XH.Y.6X6X6X0X0XqXqX9XyXa.aXsXG.XX@X",
"j.sXsXsX@X+X+XG..Xb.v l.n./.(.Z.C.C.b.(.h.;.1X2X2X1X3X<X1X<X4XL.].qX6X0XyXyXqXqXqX0X$.S.dXfXgX@X",
"g 7.y.m.j.m.g.g.0.v e ]  .%.8.9.9.9.9.a...d L.L.L.U.~.^.^.P.P.+.*.J.K.(.'.U.Q.Q.J.,.e z 0.g.h.m."
};
