/* XPM */
static char *_2400d2964944d33fc8b04b302341bbeiY78lSoOw7ap3ycE[] = {
/* columns rows colors chars-per-pixel */
"32 32 8 1 ",
"  c #1A151F",
". c #42343B",
"X c #393B42",
"o c #6D767B",
"O c #813836",
"+ c #B4563E",
"@ c #5590B4",
"# c #81D7CE",
/* pixels */
"@@@@@X@@@@@@@@@@@@@@@@@@@@@@@@@@",
"@@@@@X@@@+++++++++++++O@@ooX@@@@",
"@@X@@X@@@+OOOOOOOOOOOO.@@XXX@@@@",
"++++++++++O###O##O###O.+++++++++",
"OOOOOOOOO+O@@@O@@O@@@O.OOOOOOOOO",
"O###O###O+OOOOOOOOOOOO.O###O###O",
"O@@@O@@@O+O###O##O###O.O@@@O@@@O",
"OOOOOOOOO+O@@@O@@O@@@O.OOOOOOOOO",
"O###O###O+OOOOOOOOOOOO.O###O###O",
"O@@@O@@@O+O###O##O###O.O@@@O@@@O",
"OOOOOOOOO+O@@@O@@O@@@O.OOOOOOOOO",
"O###O###O+OOOOOOOOOOOO.O###O###O",
"O@@@O@@@O+O###O##O###O.O@@@O@@@O",
"OOOOOOOOO+O@@@O@@O@@@O.OOOOOOOOO",
"O###O###O+OOOOOOOOOOOO.O###O###O",
"O@@@O@@@O+O###O##O###O.O@@@O@@@O",
"OOOOOOOOO+O@@@O@@O@@@O.OOOOOOOOO",
"O###O###O+OOOOOOOOOOOO.O###O###O",
"O@@@O@@@O+O###O##O###O.O@@@O@@@O",
"OOOOOOOOO+O@@@O@@O@@@O.OOOOOOOOO",
"O###O###O+OOOOOOOOOOOO.O###O###O",
"O@@@O@@@O+O###O##O###O.O@@@O@@@O",
"OOOOOOOOO+O@@@O@@O@@@O.OOOOOOOOO",
"O###O###O+OOOOOOOOOOOO.O###O###O",
"O@@@O@@@O+OOOOO++OOOOO.O@@@O@@@O",
"OOOOOOOOO+OO++O..O++OO.OOOOOOOOO",
"O###O###O+OO..+OO+..OO.O###O###O",
"O@@@O@@@O+OO++++++++OO.O@@@O@@@O",
"OOOOOOOOO+OO+OOOOOO.OO.OOOOOOOOO",
"O###O###O+OO+OO  OO.OO.O###O###O",
"O@@@O@@@O+OO+OO  OO.OO.O@@@O@@@O",
"OOOOOOOOO+OO+OO..OO.OO.OOOOOOOOO"
};
