/* XPM */
static char *_875fdc9a45c48568fc2f8ef7dad3895ep79OvgdzNbebkTt[] = {
/* columns rows colors chars-per-pixel */
"32 32 6 1 ",
"  c #1A151F",
". c #6D767B",
"X c #5590B4",
"o c #B4A091",
"O c #E5BD85",
"+ c #81D7CE",
/* pixels */
"ooo....XXXXXXXXXXXXXXXXXXOOOOooo",
"++o.XX..XXXXXXXXXXXXXXXXOO++Oo++",
"XXo.XXX.ooooooooooooooooO+++OoXX",
"ooo...X.o++++++oo++++++oO+OOOooo",
"++o.XX..oXXXXXXooXXXXXXoOO++Oo++",
"XXo.XXX.ooooooooooooooooO+++OoXX",
"ooo...X.o++++++oo++++++oO+OOOooo",
"++o.XX..oXXXXXXooXXXXXXoOO++Oo++",
"XXo.XXX.ooooooooooooooooO+++OoXX",
"ooo...X.o++++++oo++++++oO+OOOooo",
"++o.XX..oXXXXXXooXXXXXXoOO++Oo++",
"XXo.XXX.ooooooooooooooooO+++OoXX",
"ooo...X.o++++++oo++++++oO+OOOooo",
"++o.XX..oXXXXXXooXXXXXXoOO++Oo++",
"XXo.XXX.ooooooooooooooooO+++OoXX",
"ooo...X.o++++++oo++++++oO+OOOooo",
"++o.XX..oXXXXXXooXXXXXXoOO++Oo++",
"XXo.XXX.ooooooooooooooooO+++OoXX",
"ooo...X.o++++++oo++++++oO+OOOooo",
"ooo.....oXXXXXXooXXXXXXoOOOOOooo",
"OOOOOOOOooooooooooooooooOOOOOOOO",
"OOOOOOOo.o+++++oo+++++oOoOOOOOOO",
"ooooooo..oXXXXXooXXXXXoOOooooooo",
"o++o++o..ooooooooooooooOOo++o++o",
"oXXoXXo..ooOOOOOOOOOOooOOoXXoXXo",
"ooooooo..oo..........ooOOooooooo",
"o++o++o..oooO.ooooO.oooOOo++o++o",
"oXXoXXo..oooO.o  oO.oooOOoXXoXXo",
"ooooooo..oooO.o  oO.oooOOooooooo",
"o++o++o..oooO.o  oO.oooOOo++o++o",
"oXXoXXo..OOOOOOOOOOOOOOOOoXXoXXo",
"ooooooo.OOOOOOOOOOOOOOOOOooooooo"
};
