/* XPM */
static char *_60160a24e634f5ba7e001339bb6694eOv6f4spYb3imxQsK[] = {
/* columns rows colors chars-per-pixel */
"32 32 7 1 ",
"  c #1A151F",
". c #42343B",
"X c #72615F",
"o c #6BB453",
"O c #C68B60",
"+ c #5590B4",
"@ c #81D7CE",
/* pixels */
"OOOOOOOOOOOOOOOOOOOOOOOOOOOOOOOO",
"XXXXXXXXXXXXXXXXXXXXXXXXXXXXXXXX",
"....X.......X.......X.......X...",
"XXXXX.XXXXXXX.XXXXXXX.XXXXXXX.XX",
"@X@@X.X@@X@@X.X@@X@@X.X@@X@@X.X@",
"+X++X.X++X++X.X++X++X.X++X++X.X+",
"XXXXX.XXXXXXX.XXXXXXX.XXXXXXX.XX",
"@X@@X.X@@X@@X.X@@X@@X.X@@X@@X.X@",
"+X++X.X++X++X.X++X++X.X++X++X.X+",
"XXXXXXXXXXXXXXXXXXXXXXXXXXXXXXXX",
"OOOOOOOOOOOOOOOOOOOOOOOOOOOOOOOO",
"XXXXXXXXXXXXXXXXXXXXXXXXXXXXXXXX",
"XX...XXXXX...XXXXX...XXXXX...XXX",
"X.....XXX.....XXX.....XXX.....XX",
".......X.......X.......X.......X",
"..@@@..X..@@@..X..@@@..X..@@@..X",
"O.+++.OOO.+++.OOO.+++.OOO.+++.OO",
"X.....XXX.....XXX.....XXX.....XX",
"X.@@@.XXX.@@@.XXX.@@@.XXX.@@@.XX",
"X.+++.XXX.+++.XXX.+++.XXX.+++.XX",
"X.....XXX.....XXX.....XXX.....XX",
"OOOOOOOOOOOOOOOOOOOOOOOOOOOOOOOO",
"XXXXXXXXXXXXXXXXXXXXXXXXXXXXXXXX",
"................................",
"XXXXXXXXXXXXXXXXXXXXXXXXXXXXXXXX",
".OOOOO.X.OOOOO.X.OOOOO.X.OOOOO.X",
".XXXXX.X.oooXo.X.XXXXX.X.XXXXX.X",
".XXXXX.X.oXooX.X.XXXXX.X.XXXXX.X",
".@@@@@.X.XXXXX.X.@@@@@.X.@@@@@.X",
".@@@@@.X.  X@@.X.@@@@@.X.@@@@@.X",
".+++++.X.  X++.X.+++++.X.+++++.X",
".XXXXX.X...XXX.X.XXXXX.X.XXXXX.X"
};
