/* XPM */
static char *_817b799611c460be06c22f652e13163QfkjlYBAmyIIBzgp[] = {
/* columns rows colors chars-per-pixel */
"48 48 222 2 ",
"   c #020300",
".  c #080300",
"X  c #050900",
"o  c #0A0900",
"O  c #140C00",
"+  c #1C0800",
"@  c #0D1300",
"#  c #161400",
"$  c #1B1800",
"%  c #250C00",
"&  c #201300",
"*  c #271500",
"=  c #331600",
"-  c #1A2800",
";  c #1C3300",
":  c #282800",
">  c #372800",
",  c #253400",
"<  c #253B00",
"1  c #2B3900",
"2  c #323C00",
"3  c #3E3B00",
"4  c #431500",
"5  c #472D00",
"6  c #562800",
"7  c #423500",
"8  c #493A00",
"9  c #5B3E00",
"0  c #623D00",
"q  c #274100",
"w  c #2C4300",
"e  c #384800",
"r  c #2A5700",
"t  c #325500",
"y  c #365A00",
"u  c #3B5B00",
"i  c #296500",
"p  c #3C6400",
"a  c #366C00",
"s  c #3D6B00",
"d  c #2E7500",
"f  c #347400",
"g  c #3B7300",
"h  c #337D00",
"j  c #3C7D00",
"k  c #444300",
"l  c #4B4700",
"z  c #444B00",
"x  c #5C4500",
"c  c #524C00",
"v  c #594D00",
"b  c #455100",
"n  c #4B5300",
"m  c #455C00",
"M  c #4A5D00",
"N  c #535400",
"B  c #505E00",
"V  c #5D5900",
"C  c #6A4800",
"Z  c #625700",
"A  c #765B00",
"S  c #436500",
"D  c #4C6400",
"F  c #436C00",
"G  c #4B6B00",
"H  c #586600",
"J  c #536B00",
"K  c #437300",
"L  c #4C7300",
"P  c #437C00",
"I  c #4B7C00",
"U  c #547400",
"Y  c #5C7400",
"T  c #537C00",
"R  c #5B7C00",
"E  c #626200",
"W  c #6C6200",
"Q  c #676D00",
"!  c #746200",
"~  c #7B6200",
"^  c #7B6F00",
"/  c #637500",
"(  c #6A7400",
")  c #637C00",
"_  c #6B7C00",
"`  c #737C00",
"'  c #787800",
"]  c #885C00",
"[  c #876100",
"{  c #9B6100",
"}  c #2E8300",
"|  c #358400",
" . c #3B8300",
".. c #348C00",
"X. c #3B8C00",
"o. c #2B9800",
"O. c #349400",
"+. c #3C9500",
"@. c #349A00",
"#. c #3C9B00",
"$. c #33A500",
"%. c #3CA500",
"&. c #34AA00",
"*. c #3CAB00",
"=. c #2DB700",
"-. c #3CB400",
";. c #38B900",
":. c #448300",
">. c #4B8300",
",. c #438C00",
"<. c #4C8B00",
"1. c #548200",
"2. c #5C8500",
"3. c #548B00",
"4. c #5C8C00",
"5. c #449300",
"6. c #4C9400",
"7. c #439B00",
"8. c #4C9B00",
"9. c #549400",
"0. c #5C9500",
"q. c #549B00",
"w. c #5C9A00",
"e. c #628400",
"r. c #6B8300",
"t. c #648B00",
"y. c #6C8D00",
"u. c #738800",
"i. c #7B8A00",
"p. c #639400",
"a. c #6D9500",
"s. c #639A00",
"d. c #6C9900",
"f. c #749600",
"g. c #7B9500",
"h. c #739900",
"j. c #7C9900",
"k. c #41A200",
"l. c #4BA300",
"z. c #43AA00",
"x. c #4CAB00",
"c. c #54A300",
"v. c #5BA400",
"b. c #54AB00",
"n. c #5AAC00",
"m. c #45B400",
"M. c #4CB400",
"N. c #43BB00",
"B. c #4CBC00",
"V. c #54B200",
"C. c #5CB400",
"Z. c #54BC00",
"A. c #5BBC00",
"S. c #6AA700",
"D. c #64AB00",
"F. c #71AF00",
"G. c #64B300",
"H. c #6BB300",
"J. c #63BB00",
"K. c #6CBC00",
"L. c #73B400",
"P. c #7CB500",
"I. c #73BC00",
"U. c #7CBE00",
"Y. c #3BC900",
"T. c #3ED700",
"R. c #3DE600",
"E. c #3AF900",
"W. c #44C500",
"Q. c #4DC300",
"!. c #44CC00",
"~. c #4CCB00",
"^. c #56C700",
"/. c #5CC400",
"(. c #54C900",
"). c #5CC900",
"_. c #4BD400",
"`. c #42D800",
"'. c #4CDC00",
"]. c #58D400",
"[. c #53DD00",
"{. c #5CDB00",
"}. c #64C500",
"|. c #6CC300",
" X c #74C200",
".X c #7AC100",
"XX c #68DB00",
"oX c #7ADA00",
"OX c #4CE300",
"+X c #45EC00",
"@X c #4CED00",
"#X c #5BE500",
"$X c #53EC00",
"%X c #5BEB00",
"&X c #44F400",
"*X c #4CF200",
"=X c #47F800",
"-X c #54F300",
";X c #5BF100",
":X c #64E500",
">X c #68E300",
",X c #63ED00",
"<X c #6DEA00",
"1X c #76E700",
"2X c #79E700",
"3X c #72E900",
"4X c #62F000",
"5X c #828200",
"6X c #878D00",
"7X c #8D8D00",
"8X c #938E00",
"9X c #849400",
"0X c #8B9400",
"qX c #839900",
"wX c #899900",
"eX c #939400",
"rX c #999200",
"tX c #87B500",
"yX c #83BB00",
"uX c #8BB900",
"iX c #8BDE00",
"pX c #80E300",
/* pixels */
"D.F.D.n.<.8 8 = - S S U e.y.i.y.y.u.y.0.T u 1 & B i.i.t.e.R / ` Q ) ) 3.<.F g <.8.8.x.M.V.n.S.P ",
"yXuX X|.G.I H 6 M s.w.q.q.8.w.s.s.d.h.d.s.w.e.8 J d.s.s.d.d.d.s.d.f.f.w.8.X.b.}.|.}.|.}. X}.}.l.",
"U.uXU. XJ.0.r.8 p s.s.q.w.s.w.w.s.s.d.d.h.d.d.D U d.a.s.s.d.q.7.f.9Xf.s.8.+.Z.}. X}.|. XU.|.^.V.",
"P.L.K. Xn.3.f.G p q.q.s.d.f.d.f.h.s.s.d.s.s.s.T T f.f.s.s.d.w.q.s.g.d.w.s.8.K.|.I.J.K.J.K.K.I.q.",
"X.+.%.*.+.X.q.,.P 9.8.f.f.f.d.d.h.s.d.d.d.d.a.J J g.9X6Xd.d.d.s.d.s.d.d.d.9.l.+.a X.X.| +.8.q.| ",
"N.[.OXR.Y.W.!.`._.M.5.7.8.8.s.d.f.d.f.f.h.a.R z 2 y.g.g.d.f.d.h.d.s.d.d.s.s.s.P # t X.v.K.L.D.0.",
"'.$X$X$X$X@X*X-X:X#X-.8.q.w.s.h.f.d.y.e.2.T N > . 2 U p.d.f.h.9Xf.f.f.d.s.s.s.1.@ # y J.|. X|.yX",
"T.$X$X$X$X$X*X@X:X#Xx.>.I K y u G L n z z k 5 O X o # , m K I R R I T >.>.>.>.s @   ; J.}.}.}.yX",
";.$X%X+X+X+X+X+X$X$Xc.R 1.T T F F I T P T T / U Y T L M 2 $ O X q F I I 1.1.L S F g f n.}./.I.P.",
" .z.*.&.&.-.m.m.M.C.s.d.d.d.s.3.1.q.w.s.d.d.d.s.g.f.d.d.a./ k # I w.w.d.h.q.l.z.x.x.z.8.l.x.l.5.",
"J.G.c.q.6.5.s.d.s.s.f.a.8.s.w.<.j q.8.s.f.d.w.d.9Xg.f.f.9X0X6Xc ( 9Xf.f.f.M.OX+X@X$X%XoX].[.[.-.",
"/.}.U. XH.p.g.g.f.d.s.8.7.w.w.>.| #.8.w.s.s.g.f.9X9X9X0X7X7X0X^ ` 7Xg.d.a.V.,X;X&X=X*X-X,X1X,X_.",
" XU.U. XJ.p.0X9Xf.d.w.s.s.q.s.>.:.7.7.8.w.d.f.g.g.9Xg.f.g.9Xd._ ) g.f.h.9XD.oXiXpX<X;X;X<X<X<X~.",
"P.I.n.b.7.,.f.f.w.s.s.d.g.s.w.>.>.q.8.w.s.q.s.9Xd.f.d.s.f.f.f.) _ 9Xf.f.9Xv.).oXoXoX:X,XXX'.'.@.",
"g ,. .j  .8.v.S.S.p.t.s.f.f.a.S s w.w.s.h.w.s.g.d.h.g.f.f.f.d._ ' 0X9Xg.g.p.8.c.s.w.#.+.#.#.#.j ",
"K b.J.J.I.tXtXuXU.H.S p >.p 1 $ ; P :.:.I K s S G s G Y _ e.4.U Y ' ' r.u.r.r.` ` / a <.C.A.J.K.",
"q.|.yXU.U.uXuXuXU.}.<.:. .P I I T 2.>.a - + * = 7 > & X e i.5Xu.` Q V Z Q _ 5X5X5X' I x.~.!./.U.",
"n..X X X.XyXyXU.U.|.7.8.w.w.q.q.w.s.h.3.k 8 9 C A A C = z wXeXwXeXeX0X7X8X0XeX9XeXwX8.N.(.(.}..X",
"+.x.l.8.6.9.6.q.n.l.<.d.f.h.d.wXh.s.h.t.k A ! ~ W E ! x N wXeX9X9XqX9XeXrXeX9Xg.a.q.O.z.b.l.7.8.",
"w.q.>.s s h 4.0.8.p.g.j.j.qXwX0X0XqXh.e.7 ] ! E E ! ~ A H wXeX0Xg.d.wX0XrXu.:.:.+.#.l.b.8... .g ",
"tXU.yXI.S.:.g.wXh.9XqX0XeXeXwXqXwXwXwXe.e W ! W ! [ { ] B j.wXeX0Xs.h.qXf.3.C.L.A.K.K.|.|./.K.w.",
"I.U. XU.H.,.g.g.s.d.s.j.0XwXqXqXd.h.i.N l E W [ ! [ [ A n y.g.g.j.j.s.w.w.c./.I././.^.}.I.K.|.b.",
".XyXyXuXH.,.s.w.s.s.d.d.h.j.g.Y M B x * 3 W W ! ~ ~ E Z 7 E / T 4.j.h.w.s.c./.).(.(.)./.I.I.|.c.",
">.9.d.d.<.d | <.t.y.t.e.T m 1 # O % + . 7 A A N Z Z n n * > 7 e S 2.4.2.2.P X.7.6.:.h h ,.0.4.a ",
"O.G.J.Z.Z.W.~./.A.Z.q.e.R ) R D O = 8 l c c H L u u s j j I I s M Q Z l L I a u e < < :.8.w.9.q.",
"~.1XpX2X<X-X-X,X4X%XJ.j.j.qXwXr.: z L 2.2.e.y.p.w.0.8.8.q.w.q.P 6 0 0 H s.d.w.s.p.3. .G. X X X X",
"T.-X;X;X<X;XE.E.=X-XJ.g.j.qX0X2.w d 5.w.0.p.0.q.w.w.q.q.q.8.8.I c e.r.p.d.f.f.h.f.d.5.D..X X X X",
"=.&X&X-X1X,X-X;X,X%XC.d.qX9XqX2.p 9.8.0.w.0.0.0.w.q.q.q.q.q.q.>.R f.g.h.g.g.d.d.f.d.X.,.G.L. X}.",
"} =.=.Y.M.m.B.Q.Q.-.q.j.9Xj.h.) F p.w.q.q.q.p.q.0.q.8.8.8.8.q.P 1.f.g.f.9Xf.w.q.q.n.#.h X.8.x.,.",
"B.x.*.x.9.<.f.s.s.w.d.j.qX9Xj.r.u 0.w.0.p.q.q.8.8.8.8.q.8.q.q.P >.w.s.d.g.c._.{.XX>X:X{.].].[.&.",
" X}.).}.F.0.qXf.s.h.qXqXwX0Xj.) 3 I 9.w.p.w.q.8.8.8.8.q.q.8.8.j T 8.8.q.w.M.#X,X<X%X,X,X<X1X,X_.",
"|.|.}.}.C.g M S F / ' ' ` _ Y e & , t S T I P j j P I K s r i ; q I >.:.>.x.,X,X,X-X3X3X<X;X,X].",
"J.K.C.-.+.r , & : c N b m T R / / U J c v 5 O X X O > > 8 e w 2 w i } |  .$.OX#X,X$X-X#X%X$X{.N.",
"O.@.O.....%.7.u t :.e.y.s.d.d.d.s.d.d.r.r.J 4 .   : G L L G s p a | @.7.q.8.%.%.%.-.;.$.$.%.#.o.",
"=.T._.[.OX@X+XOX~.`.x.d.s.w.q.8.w.d.f.s.w.t.x +   r 7.@.+.,.,.9.3.6.#.o.7.w.q. .f 8...7.x.n.D.G.",
"_.%X%X%X$X*X*X$X#X$XV.f.f.d.d.d.w.w.w.w.s.d.>.: - ,.8.#.#.7.8.q.w.8.8.7.#.#.7...g 8.#.B.).|..XtX",
"[.%X&X$X%X&X=X*X$X$Xn.f.s.d.g.g.d.q.7.w.s.q.8.K F w.0.q.q.q.w.p.q.8.8.8.#.#.#.X.P q.%./. XuXuXtX",
"!.OX+X+XOX`.'.OX&XOXq.g.f.0X9Xh.g.f.d.g.g.f.d.4.>.w.0.q.w.q.q.8.7.7.q.w.0.8.q.,.P w.@.x.tXtXL.H.",
"k.%.$.@...h F t X.b.0.s.s.f.f.h.g.h.g.9Xd.h.f.e.>.w.q.q.6.<.<.3.4.q.w.p.w.l.B.z.*.W.;.=.*.z.7...",
"I.J.H.H.w.e 6 + < R 1.>.>.1.2.4.2.3.I L I 1.y.( K >.:.u ; - ; , : t P 1.>.m.@X$X+X=X&XE.R.OX[.;.",
" X.X.X.XH.k 6 x k e , < e S T L u >.:.:.:.1.2.r.r.U p S J L I u ; j I U R l.@X$X$X*X&X&X=X*X$X!.",
".XuXU.U.K.U W ` _ r.p.p.a.d.d.3.L d.s.q.d.d.w.g.0Xg.s.d.w.s.s.>.s d.s.d.s.l.[.*X$X*X=X*X*X%X$X_.",
"5.v.H.I.D. ./ / r.p.s.w.s.d.d.2.( 7X6Xf.h.s.a.g.g.g.f.s.7.w.g.R >.d.w.w.w.6.%.W.!.Y.Y.Y.`.[.{.N.",
"i #.%.v.9.,.j >.5.5.9.s.s.s.d.2._ 9Xg.d.h.h.g.g.g.g.9Xa.s.w.d.U I s.s.f.a.s.9.q.w.9...,.%.z.l.5.",
"S.U.I.U.P.P.K./.K.H.<.s.s.d.s.<.4.g.f.h.g.f.d.a.f.g.9X9Xf.s.w.s P w.d.f.f.d.d.d.d.s.q.L.|./.}.I.",
"F.tXtXU.tXU. X|.}.K.9.s.d.q.q.3.e.f.d.f.9Xg.f.w.f.g.g.9Xf.s.6.r P s.w.s.s.s.d.d.d.w.v.yXU.U.|..X",
"v.yXyXyX X|. X.X}.V.<.d.h.s.0.m _ qXd.a.a.y.y.q.w.d.s.s.h.0.F : y a.s.s.0.s.d.d.d.s.7.H.tXuXU..X",
"i ,.s.S.n.G.n.v.8.j L y.y.2.z $ J y.t.S w , < y >.0.4.t.4.p 3 + $ e L Y S g F K j ,.| h 6.v.b.v."
};
